<svg xmlns="http://www.w3.org/2000/svg" viewBox="0 0 1200 720" role="img" aria-label="Abstract AI receptionist call interface">
  <defs>
    <radialGradient id="glow" cx="50%" cy="45%" r="70%">
      <stop offset="0" stop-color="#c9a03d" stop-opacity=".38"/>
      <stop offset=".45" stop-color="#8d6f24" stop-opacity=".12"/>
      <stop offset="1" stop-color="#000" stop-opacity="0"/>
    </radialGradient>
    <linearGradient id="fade" x1="0" x2="1" y1="0" y2="1">
      <stop offset="0" stop-color="#18140a"/>
      <stop offset="1" stop-color="#050505"/>
    </linearGradient>
  </defs>
  <rect width="1200" height="720" fill="url(#fade)"/>
  <rect width="1200" height="720" fill="url(#glow)"/>
  <g opacity=".16" stroke="#ecd479" stroke-width="2">
    <path d="M94 560c190-110 326-118 482-42s309 68 530-80" fill="none"/>
    <path d="M100 594c188-76 331-82 468-21s306 55 526-44" fill="none"/>
  </g>
  <g transform="translate(190 106)" opacity=".5">
    <rect x="0" y="0" width="245" height="470" rx="42" fill="#050505" stroke="#c9a03d" stroke-width="8"/>
    <rect x="38" y="70" width="170" height="54" rx="20" fill="#c9a03d" opacity=".22"/>
    <circle cx="122" cy="226" r="62" fill="none" stroke="#ecd479" stroke-width="6"/>
    <path d="M95 218c18-34 54-33 72 0M82 292c24-47 58-66 80-66s56 19 80 66" fill="none" stroke="#ecd479" stroke-width="8" stroke-linecap="round"/>
    <circle cx="84" cy="392" r="34" fill="#c23a2b" opacity=".8"/>
    <circle cx="164" cy="392" r="34" fill="#27a957" opacity=".8"/>
  </g>
  <g transform="translate(560 190)" opacity=".52" stroke="#ecd479" stroke-width="8" stroke-linecap="round" fill="none">
    <path d="M84 190c-44-38-64-91-46-141C56 0 119-13 178 17c60 31 96 94 83 151-13 61-75 94-146 75"/>
    <path d="M70 252c68 38 161 35 229-9"/>
    <path d="M324 127h105M368 84v88"/>
    <circle cx="430" cy="127" r="58"/>
    <path d="M72 128c-45-21-72-47-72-78 0-55 89-99 198-99s198 44 198 99c0 20-12 39-32 55"/>
  </g>
</svg>
