<svg xmlns="http://www.w3.org/2000/svg" viewBox="0 0 1200 720" role="img" aria-label="Abstract CRM pipeline and customer records">
  <defs>
    <radialGradient id="glow" cx="52%" cy="43%" r="74%">
      <stop offset="0" stop-color="#c9a03d" stop-opacity=".33"/>
      <stop offset=".52" stop-color="#75591d" stop-opacity=".13"/>
      <stop offset="1" stop-color="#000" stop-opacity="0"/>
    </radialGradient>
    <linearGradient id="fade" x1="0" x2="1" y1="0" y2="1">
      <stop offset="0" stop-color="#11100f"/>
      <stop offset="1" stop-color="#050505"/>
    </linearGradient>
  </defs>
  <rect width="1200" height="720" fill="url(#fade)"/>
  <rect width="1200" height="720" fill="url(#glow)"/>
  <g opacity=".16" stroke="#ecd479" stroke-width="2">
    <path d="M116 570c184-90 324-89 478-16s314 55 492-62" fill="none"/>
    <path d="M116 612c184-52 326-47 486 6s312 35 482-34" fill="none"/>
  </g>
  <g opacity=".54" fill="none" stroke="#ecd479" stroke-linecap="round" stroke-linejoin="round">
    <rect x="184" y="164" width="206" height="392" rx="28" stroke-width="9"/>
    <rect x="498" y="164" width="206" height="392" rx="28" stroke-width="9"/>
    <rect x="812" y="164" width="206" height="392" rx="28" stroke-width="9"/>
    <circle cx="287" cy="254" r="42" stroke-width="8"/>
    <path d="M226 354h122M226 410h94M226 466h134" stroke-width="10"/>
    <circle cx="601" cy="254" r="42" stroke-width="8"/>
    <path d="M540 354h122M540 410h94M540 466h134" stroke-width="10"/>
    <circle cx="915" cy="254" r="42" stroke-width="8"/>
    <path d="M854 354h122M854 410h94M854 466h134" stroke-width="10"/>
    <path d="M390 360h108M704 360h108" stroke-width="8"/>
  </g>
  <g opacity=".42" fill="#c9a03d">
    <circle cx="444" cy="360" r="14"/>
    <circle cx="758" cy="360" r="14"/>
  </g>
</svg>
